<?xml version="1.0" encoding="UTF-8" standalone="no"?>
<!DOCTYPE svg PUBLIC "-//W3C//DTD SVG 1.1//EN" "http://www.w3.org/Graphics/SVG/1.1/DTD/svg11.dtd">
<!-- Created with Vectornator (http://vectornator.io/) -->
<svg height="1024.0pt" stroke-miterlimit="10" style="fill-rule:nonzero;clip-rule:evenodd;stroke-linecap:round;stroke-linejoin:round;" version="1.1" viewBox="0 0 4254.53 1024" width="4254.527326935274pt" xml:space="preserve" xmlns="http://www.w3.org/2000/svg" xmlns:xlink="http://www.w3.org/1999/xlink">
<defs>
<linearGradient gradientTransform="matrix(183.518 -700.939 668.645 183.518 322.28 861.818)" gradientUnits="userSpaceOnUse" id="LinearGradient" x1="0" x2="1" y1="0" y2="0">
<stop offset="0" stop-color="#ff7e27"/>
<stop offset="0.495194" stop-color="#e55342"/>
<stop offset="1" stop-color="#ce2e59"/>
</linearGradient>
</defs>
<g id="Calque-1">
<g opacity="1">
<g opacity="1">
<path d="M1.35003e-13 211.242C1.35003e-13 200.196 8.95431 191.242 20 191.242L48.5106 191.242C59.5563 191.242 68.5106 200.196 68.5106 211.242L68.5106 809.288C68.5106 820.334 59.5563 829.288 48.5106 829.288L20 829.288C8.95431 829.288 1.35003e-13 820.334 1.35003e-13 809.288L1.35003e-13 211.242Z" fill="#e6e6e6" fill-rule="nonzero" opacity="1" stroke="none"/>
<path d="M20 259.753C8.95431 259.753 2.55795e-13 250.798 2.55795e-13 239.753L2.55795e-13 211.242C2.55795e-13 200.196 8.95431 191.242 20 191.242L236.514 191.242C247.56 191.242 256.514 200.196 256.514 211.242L256.514 239.753C256.514 250.798 247.56 259.753 236.514 259.753L20 259.753Z" fill="#e6e6e6" fill-rule="nonzero" opacity="1" stroke="none"/>
<path d="M20 829.288C8.95431 829.288 2.55795e-13 820.334 2.55795e-13 809.288L2.55795e-13 780.778C2.55795e-13 769.732 8.95431 760.778 20 760.778L236.514 760.778C247.56 760.778 256.514 769.732 256.514 780.778L256.514 809.288C256.514 820.334 247.56 829.288 236.514 829.288L20 829.288Z" fill="#e6e6e6" fill-rule="nonzero" opacity="1" stroke="none"/>
</g>
<g opacity="1">
<path d="M828.572 809.288C828.572 820.334 819.618 829.288 808.572 829.288L780.062 829.288C769.016 829.288 760.062 820.334 760.062 809.288L760.062 211.242C760.062 200.196 769.016 191.242 780.062 191.242L808.572 191.242C819.618 191.242 828.572 200.196 828.572 211.242L828.572 809.288Z" fill="#e6e6e6" fill-rule="nonzero" opacity="1" stroke="none"/>
<path d="M808.572 760.778C819.618 760.778 828.572 769.732 828.572 780.778L828.572 809.288C828.572 820.334 819.618 829.288 808.572 829.288L592.058 829.288C581.012 829.288 572.058 820.334 572.058 809.288L572.058 780.778C572.058 769.732 581.012 760.778 592.058 760.778L808.572 760.778Z" fill="#e6e6e6" fill-rule="nonzero" opacity="1" stroke="none"/>
<path d="M808.572 191.242C819.618 191.242 828.572 200.196 828.572 211.242L828.572 239.753C828.572 250.798 819.618 259.753 808.572 259.753L592.058 259.753C581.012 259.753 572.058 250.798 572.058 239.753L572.058 211.242C572.058 200.196 581.012 191.242 592.058 191.242L808.572 191.242Z" fill="#e6e6e6" fill-rule="nonzero" opacity="1" stroke="none"/>
</g>
<path d="M494.665 235.491C497.949 215.235 472.24 203.762 459.356 219.734L211.086 527.525C200.534 540.607 209.846 560.082 226.653 560.082L346.219 560.082C358.542 560.082 367.934 571.118 365.961 583.282L332.689 788.509C329.405 808.765 355.114 820.238 367.998 804.266L616.268 496.475C626.82 483.393 617.509 463.918 600.701 463.918L481.135 463.918C468.812 463.918 459.421 452.882 461.393 440.718L494.665 235.491Z" fill="url(#LinearGradient)" fill-rule="nonzero" opacity="1" stroke="none"/>
</g>
<g opacity="0">
<text fill="#333333" font-family="Inter-Regular_Light" font-size="533.681" opacity="1" stroke="none" text-anchor="start" transform="matrix(1 0 0 1 1043.12 162.719)" x="0" y="0">
<tspan textLength="867.928" x="0" y="517.004"><![CDATA[app]]></tspan>
</text>
<text fill="#333333" font-family="Inter-Regular_Medium" font-size="533.681" opacity="1" stroke="none" text-anchor="start" transform="matrix(1 0 0 1 1918 162.719)" x="0" y="0">
<tspan textLength="1361.65" x="0" y="517.004"><![CDATA[strate]]></tspan>
</text>
</g>
<g opacity="1">
<path d="M4073.97 694.488C4034.84 694.488 4001.21 685.631 3973.07 667.918C3944.93 650.205 3923.31 625.785 3908.21 594.66C3893.11 563.535 3885.56 528.068 3885.56 488.258C3885.56 447.992 3893.41 412.257 3909.1 381.054C3924.79 349.851 3946.49 325.341 3974.21 307.524C4001.94 289.707 4033.78 280.799 4069.74 280.799C4097.76 280.799 4123.11 285.784 4145.78 295.753C4168.45 305.722 4187.9 319.916 4204.13 338.336C4220.36 356.756 4232.82 378.587 4241.5 403.829C4250.19 429.072 4254.53 456.967 4254.53 487.515L4254.53 509.172L3921.18 509.172L3921.18 449.205L4213.06 449.205L4178.23 467.508C4178.23 442.866 4173.81 421.514 4164.98 403.452C4156.15 385.389 4143.68 371.431 4127.59 361.577C4111.5 351.723 4092.46 346.796 4070.48 346.796C4048.75 346.796 4029.88 351.723 4013.87 361.577C3997.86 371.431 3985.44 385.389 3976.61 403.452C3967.78 421.514 3963.36 442.866 3963.36 467.508L3963.36 501.566C3963.36 526.505 3967.71 548.521 3976.4 567.616C3985.09 586.711 3997.77 601.619 4014.43 612.34C4031.09 623.06 4051.3 628.42 4075.05 628.42C4092.34 628.42 4107.61 625.766 4120.83 620.457C4134.06 615.149 4145.06 607.732 4153.82 598.206C4162.58 588.68 4168.85 577.654 4172.62 565.128L4248.73 565.128C4243.78 590.675 4233.14 613.149 4216.82 632.551C4200.5 651.952 4180.06 667.125 4155.51 678.07C4130.96 689.015 4103.78 694.488 4073.97 694.488Z" fill="#e6e6e6" fill-rule="nonzero" opacity="1" stroke="none"/>
<path d="M3849.1 289.792L3849.1 355.157L3619.66 355.157L3619.66 289.792L3849.1 289.792ZM3689.42 181.874L3768.64 181.874L3768.64 580.796C3768.64 595.406 3771.67 605.614 3777.73 611.42C3783.78 617.226 3794.7 620.13 3810.49 620.13C3816.42 620.13 3823.03 620.13 3830.32 620.13C3837.61 620.13 3843.87 620.13 3849.1 620.13L3849.1 685.494C3842.56 685.494 3834.71 685.494 3825.55 685.494C3816.39 685.494 3807.62 685.494 3799.23 685.494C3762.02 685.494 3734.41 677.702 3716.42 662.118C3698.42 646.534 3689.42 622.844 3689.42 591.048L3689.42 181.874Z" fill="#e6e6e6" fill-rule="nonzero" opacity="1" stroke="none"/>
<path d="M3372.77 691.695C3346.49 691.695 3323.03 687.243 3302.39 678.34C3281.74 669.436 3265.42 656.109 3253.42 638.359C3241.41 620.609 3235.41 598.618 3235.41 572.388C3235.41 549.745 3239.74 531.203 3248.41 516.763C3257.08 502.323 3268.75 490.885 3283.44 482.45C3298.12 474.015 3314.86 467.596 3333.65 463.193C3352.44 458.79 3371.84 455.429 3391.85 453.111C3416.72 449.972 3436.37 447.45 3450.79 445.543C3465.21 443.636 3475.49 440.64 3481.63 436.553C3487.78 432.466 3490.85 425.674 3490.85 416.178L3490.85 412.834C3490.85 399.918 3487.69 388.521 3481.39 378.641C3475.08 368.762 3465.95 360.996 3454.01 355.344C3442.06 349.692 3427.68 346.866 3410.85 346.866C3394.15 346.866 3379.37 349.623 3366.51 355.137C3353.65 360.65 3343.44 368.192 3335.85 377.763C3328.27 387.334 3323.98 398.246 3322.98 410.498L3245.14 410.498C3246.57 385.232 3254.26 362.988 3268.23 343.766C3282.19 324.544 3301.41 309.449 3325.89 298.481C3350.36 287.513 3379.04 282.029 3411.93 282.029C3436.26 282.029 3458.16 285.14 3477.63 291.361C3497.09 297.583 3513.63 306.485 3527.24 318.066C3540.85 329.647 3551.24 343.556 3558.42 359.791C3565.59 376.027 3569.18 394.157 3569.18 414.181L3569.18 685.494L3491.25 685.494L3491.25 629.421L3489.75 629.421C3484.29 640.038 3476.75 650.111 3467.15 659.639C3457.55 669.167 3445.1 676.892 3429.8 682.813C3414.5 688.734 3395.49 691.695 3372.77 691.695ZM3388.91 628.192C3412.15 628.192 3431.34 623.98 3446.47 615.557C3461.61 607.133 3472.83 596.057 3480.15 582.327C3487.46 568.597 3491.12 553.609 3491.12 537.364L3491.12 491.133C3488.39 493.202 3483.95 495.168 3477.78 497.032C3471.61 498.896 3464.15 500.697 3455.41 502.436C3446.67 504.175 3437.22 505.863 3427.07 507.5C3416.92 509.138 3406.61 510.683 3396.13 512.135C3381.8 514.086 3368.38 517.375 3355.89 522C3343.4 526.626 3333.31 533.047 3325.63 541.263C3317.94 549.48 3314.1 560.341 3314.1 573.846C3314.1 585.095 3317.15 594.795 3323.25 602.945C3329.36 611.095 3338.01 617.341 3349.22 621.681C3360.42 626.022 3373.65 628.192 3388.91 628.192Z" fill="#e6e6e6" fill-rule="nonzero" opacity="1" stroke="none"/>
<path d="M3001.54 685.494L3001.54 289.792L3077.49 289.792L3077.49 353.752L3078.86 353.752C3086.1 332.143 3097.55 315.261 3113.2 303.106C3128.84 290.952 3149.26 284.874 3174.44 284.874C3180.45 284.874 3185.99 285.079 3191.04 285.489C3196.09 285.899 3200.18 286.309 3203.3 286.718L3203.3 360.538C3200.31 359.925 3194.92 359.157 3187.13 358.234C3179.33 357.311 3170.79 356.849 3161.5 356.849C3146.83 356.849 3133.34 360.244 3121.03 367.034C3108.72 373.824 3098.93 384.215 3091.66 398.209C3084.39 412.202 3080.76 430.013 3080.76 451.641L3080.76 685.494L3001.54 685.494Z" fill="#e6e6e6" fill-rule="nonzero" opacity="1" stroke="none"/>
<path d="M2938.96 289.792L2938.96 355.157L2709.52 355.157L2709.52 289.792L2938.96 289.792ZM2779.29 181.874L2858.51 181.874L2858.51 580.796C2858.51 595.406 2861.53 605.614 2867.59 611.42C2873.65 617.226 2884.57 620.13 2900.35 620.13C2906.28 620.13 2912.89 620.13 2920.18 620.13C2927.48 620.13 2933.74 620.13 2938.96 620.13L2938.96 685.494C2932.42 685.494 2924.57 685.494 2915.41 685.494C2906.25 685.494 2897.48 685.494 2889.1 685.494C2851.88 685.494 2824.28 677.702 2806.28 662.118C2788.29 646.534 2779.29 622.844 2779.29 591.048L2779.29 181.874Z" fill="#e6e6e6" fill-rule="nonzero" opacity="1" stroke="none"/>
<path d="M2511.42 694.693C2481.21 694.693 2454 689.857 2429.78 680.187C2405.56 670.516 2386.03 656.06 2371.18 636.816C2356.33 617.573 2347.95 593.677 2346.02 565.128L2424.22 565.128C2426.38 586.499 2434.77 602.968 2449.41 614.535C2464.04 626.103 2484.17 631.886 2509.79 631.886C2534.97 631.886 2554.8 626.759 2569.27 616.505C2583.74 606.251 2590.97 593.257 2590.97 577.523C2590.97 564.064 2585.81 553.265 2575.5 545.124C2565.18 536.984 2551.4 531.052 2534.16 527.328L2468.57 512.878C2431.31 504.537 2403.07 490.886 2383.84 471.926C2364.62 452.965 2355.01 428.828 2355.01 399.514C2355.01 376.18 2361.32 355.607 2373.93 337.794C2386.54 319.981 2404.23 306.063 2427.01 296.04C2449.79 286.016 2476.3 281.004 2506.56 281.004C2536.28 281.004 2562.68 286.277 2585.76 296.824C2608.83 307.371 2627.06 322.294 2640.44 341.594C2653.82 360.894 2660.89 383.884 2661.64 410.563L2586.08 410.563C2585.83 391.288 2578.57 375.321 2564.29 362.66C2550.02 350 2531.13 343.67 2507.63 343.67C2485.16 343.67 2467.28 348.922 2454.01 359.425C2440.73 369.929 2434.09 382.798 2434.09 398.033C2434.09 411.449 2439.17 422.288 2449.33 430.552C2459.49 438.815 2473.41 444.97 2491.09 449.018L2558.57 463.872C2597.22 472.506 2625.6 485.709 2643.72 503.481C2661.84 521.253 2670.9 544.489 2670.9 573.19C2670.9 598.304 2664.01 619.953 2650.23 638.136C2636.45 656.32 2617.54 670.292 2593.49 680.052C2569.44 689.812 2542.08 694.693 2511.42 694.693Z" fill="#e6e6e6" fill-rule="nonzero" opacity="1" stroke="none"/>
<path d="M1497.62 842.126L1497.62 289.792L1544.84 289.792L1544.84 364.484L1545.46 364.484C1552.79 347.583 1563.2 333.053 1576.69 320.894C1590.18 308.735 1605.81 299.346 1623.59 292.726C1641.37 286.106 1660.08 282.796 1679.73 282.796C1713.62 282.796 1743.52 291.352 1769.41 308.464C1795.31 325.576 1815.57 349.517 1830.18 380.287C1844.8 411.056 1852.1 446.842 1852.1 487.643C1852.1 528.363 1844.82 564.106 1830.25 594.874C1815.67 625.642 1795.46 649.603 1769.6 666.759C1743.75 683.914 1713.79 692.491 1679.73 692.491C1660.08 692.491 1641.66 689.244 1624.46 682.748C1607.26 676.253 1592.01 666.864 1578.68 654.58C1565.36 642.296 1554.62 627.62 1546.46 610.551L1545.83 610.551L1545.83 842.126L1497.62 842.126ZM1673.24 648.52C1698.47 648.52 1720.85 642.234 1740.37 629.661C1759.9 617.089 1775.29 598.832 1786.53 574.891C1797.77 550.95 1803.39 521.868 1803.39 487.643C1803.39 453.251 1797.77 424.064 1786.53 400.082C1775.29 376.1 1759.9 357.844 1740.37 345.312C1720.85 332.78 1698.47 326.515 1673.24 326.515C1646.76 326.515 1623.69 333.114 1604.04 346.313C1584.39 359.512 1569.19 378.186 1558.45 402.334C1547.71 426.481 1542.34 454.918 1542.34 487.643C1542.34 520.201 1547.71 548.533 1558.45 572.64C1569.19 596.747 1584.39 615.42 1604.04 628.66C1623.69 641.9 1646.76 648.52 1673.24 648.52Z" fill="#e6e6e6" fill-rule="nonzero" opacity="1" stroke="none"/>
<path d="M1926.55 842.126L1926.55 289.792L1973.76 289.792L1973.76 364.484L1974.38 364.484C1981.71 347.583 1992.12 333.053 2005.61 320.894C2019.1 308.735 2034.74 299.346 2052.52 292.726C2070.29 286.106 2089.01 282.796 2108.66 282.796C2142.55 282.796 2172.44 291.352 2198.34 308.464C2224.24 325.576 2244.5 349.517 2259.11 380.287C2273.73 411.056 2281.03 446.842 2281.03 487.643C2281.03 528.363 2273.75 564.106 2259.17 594.874C2244.6 625.642 2224.39 649.603 2198.53 666.759C2172.67 683.914 2142.72 692.491 2108.66 692.491C2089.01 692.491 2070.58 689.244 2053.39 682.748C2036.19 676.253 2020.93 666.864 2007.61 654.58C1994.29 642.296 1983.55 627.62 1975.39 610.551L1974.76 610.551L1974.76 842.126L1926.55 842.126ZM2102.16 648.52C2127.39 648.52 2149.77 642.234 2169.3 629.661C2188.83 617.089 2204.21 598.832 2215.46 574.891C2226.7 550.95 2232.32 521.868 2232.32 487.643C2232.32 453.251 2226.7 424.064 2215.46 400.082C2204.21 376.1 2188.83 357.844 2169.3 345.312C2149.77 332.78 2127.39 326.515 2102.16 326.515C2075.68 326.515 2052.62 333.114 2032.97 346.313C2013.31 359.512 1998.12 378.186 1987.38 402.334C1976.63 426.481 1971.26 454.918 1971.26 487.643C1971.26 520.201 1976.63 548.533 1987.38 572.64C1998.12 596.747 2013.31 615.42 2032.97 628.66C2052.62 641.9 2075.68 648.52 2102.16 648.52Z" fill="#e6e6e6" fill-rule="nonzero" opacity="1" stroke="none"/>
<path d="M1224.57 691.49C1199.43 691.49 1176.53 687.181 1155.88 678.562C1135.22 669.944 1118.74 656.953 1106.41 639.591C1094.09 622.23 1087.93 600.642 1087.93 574.83C1087.93 554.259 1091.88 537.209 1099.79 523.678C1107.7 510.147 1118.76 499.218 1132.96 490.89C1147.16 482.562 1164.02 475.984 1183.54 471.156C1203.07 466.327 1224.41 462.414 1247.56 459.417C1272.29 456.001 1292.44 453.086 1308.01 450.672C1323.58 448.258 1335.05 444.656 1342.42 439.867C1349.79 435.077 1353.48 427.521 1353.48 417.196L1353.48 411.201C1353.48 394.713 1349.31 380.079 1340.99 367.297C1332.66 354.516 1320.94 344.441 1305.83 337.071C1290.71 329.702 1273.04 326.017 1252.81 326.017C1232.73 326.017 1214.75 329.618 1198.84 336.819C1182.94 344.021 1170.3 353.826 1160.94 366.235C1151.57 378.643 1146.55 392.633 1145.89 408.203L1096.92 408.203C1097.75 384.221 1104.91 362.82 1118.4 344C1131.89 325.181 1150.21 310.275 1173.36 299.283C1196.51 288.291 1222.99 282.796 1252.81 282.796C1274.87 282.796 1295 285.918 1313.2 292.164C1331.39 298.409 1347.05 307.236 1360.16 318.646C1373.28 330.055 1383.39 343.607 1390.51 359.302C1397.63 374.998 1401.19 392.297 1401.19 411.201L1401.19 685.494L1353.48 685.494L1353.48 620.791L1352.23 620.791C1346.56 633.032 1338.26 644.545 1327.31 655.33C1316.36 666.114 1302.41 674.837 1285.47 681.498C1268.52 688.159 1248.22 691.49 1224.57 691.49ZM1230.57 647.771C1256.88 647.771 1279.2 642.754 1297.52 632.721C1315.84 622.687 1329.74 608.885 1339.24 591.314C1348.73 573.744 1353.48 553.592 1353.48 530.859L1353.48 475.401C1349.98 478.484 1344.86 481.254 1338.11 483.709C1331.37 486.164 1323.25 488.412 1313.76 490.454C1304.26 492.495 1293.75 494.431 1282.22 496.262C1270.69 498.093 1258.47 499.882 1245.56 501.631C1223.49 504.629 1204.32 509.042 1188.04 514.872C1171.76 520.701 1159.21 528.571 1150.38 538.479C1141.55 548.388 1137.14 561.336 1137.14 577.324C1137.14 592.231 1141.12 604.951 1149.07 615.484C1157.02 626.017 1168.04 634.031 1182.11 639.527C1196.18 645.023 1212.33 647.771 1230.57 647.771Z" fill="#e6e6e6" fill-rule="nonzero" opacity="1" stroke="none"/>
</g>
</g>
</svg>
