<?xml version="1.0" encoding="UTF-8" standalone="no"?>
<!DOCTYPE svg PUBLIC "-//W3C//DTD SVG 1.1//EN" "http://www.w3.org/Graphics/SVG/1.1/DTD/svg11.dtd">
<!-- Created with Vectornator (http://vectornator.io/) -->
<svg height="1024.0pt" stroke-miterlimit="10" style="fill-rule:nonzero;clip-rule:evenodd;stroke-linecap:round;stroke-linejoin:round;" version="1.1" viewBox="0 0 4217.58 1024" width="4217.576275167289pt" xml:space="preserve" xmlns="http://www.w3.org/2000/svg" xmlns:xlink="http://www.w3.org/1999/xlink">
<defs>
<linearGradient gradientTransform="matrix(-1.78402 635.69 -635.69 -1.78402 1.17019 188.234)" gradientUnits="userSpaceOnUse" id="LinearGradient" x1="0" x2="1" y1="0" y2="0">
<stop offset="0" stop-color="#e6e6e6"/>
<stop offset="1" stop-color="#efefef"/>
</linearGradient>
<linearGradient gradientTransform="matrix(1.78402 -635.69 635.69 1.78402 827.459 832.031)" gradientUnits="userSpaceOnUse" id="LinearGradient_2" x1="0" x2="1" y1="0" y2="0">
<stop offset="0" stop-color="#efefef"/>
<stop offset="1" stop-color="#e6e6e6"/>
</linearGradient>
<linearGradient gradientTransform="matrix(183.518 -700.939 668.645 183.518 322.275 861.818)" gradientUnits="userSpaceOnUse" id="LinearGradient_3" x1="0" x2="1" y1="0" y2="0">
<stop offset="0" stop-color="#ff7e27"/>
<stop offset="0.495194" stop-color="#e55342"/>
<stop offset="1" stop-color="#ce2e59"/>
</linearGradient>
</defs>
<g id="Calque-1">
<g opacity="0">
<text fill="#333333" font-family="Inter-Regular_Light" font-size="533.681" opacity="1" stroke="none" text-anchor="start" transform="matrix(1 0 0 1 1043.12 162.719)" x="0" y="0">
<tspan textLength="867.928" x="0" y="517.004"><![CDATA[app]]></tspan>
</text>
<text fill="#333333" font-family="Inter-Regular_Medium" font-size="533.681" opacity="1" stroke="none" text-anchor="start" transform="matrix(1 0 0 1 1918 162.719)" x="0" y="0">
<tspan textLength="1361.65" x="0" y="517.004"><![CDATA[strate]]></tspan>
</text>
</g>
<g opacity="1">
<path d="M4037.01 715.377C3997.89 715.377 3964.26 706.52 3936.12 688.807C3907.98 671.094 3886.36 646.675 3871.26 615.55C3856.16 584.425 3848.61 548.957 3848.61 509.147C3848.61 468.881 3856.46 433.146 3872.15 401.943C3887.84 370.74 3909.54 346.23 3937.26 328.413C3964.99 310.597 3996.83 301.688 4032.79 301.688C4060.81 301.688 4086.16 306.673 4108.83 316.642C4131.5 326.611 4150.95 340.805 4167.18 359.225C4183.41 377.645 4195.87 399.476 4204.55 424.719C4213.23 449.961 4217.58 477.856 4217.58 508.404L4217.58 530.061L3884.23 530.061L3884.23 470.095L4176.11 470.095L4141.27 488.397C4141.27 463.756 4136.86 442.404 4128.03 424.341C4119.2 406.278 4106.73 392.32 4090.64 382.466C4074.55 372.612 4055.51 367.685 4033.53 367.685C4011.8 367.685 3992.93 372.612 3976.92 382.466C3960.91 392.32 3948.49 406.278 3939.66 424.341C3930.82 442.404 3926.41 463.756 3926.41 488.397L3926.41 522.456C3926.41 547.394 3930.76 569.411 3939.45 588.506C3948.14 607.601 3960.82 622.508 3977.48 633.229C3994.14 643.949 4014.35 649.309 4038.1 649.309C4055.39 649.309 4070.66 646.655 4083.88 641.347C4097.11 636.038 4108.11 628.621 4116.87 619.095C4125.63 609.569 4131.89 598.543 4135.67 586.017L4211.78 586.017C4206.83 611.564 4196.19 634.039 4179.87 653.44C4163.55 672.842 4143.11 688.015 4118.56 698.96C4094.01 709.904 4066.82 715.377 4037.01 715.377Z" fill="#e6e6e6" fill-rule="nonzero" opacity="1" stroke="none"/>
<path d="M3812.15 310.682L3812.15 376.046L3582.7 376.046L3582.7 310.682L3812.15 310.682ZM3652.47 202.763L3731.69 202.763L3731.69 601.685C3731.69 616.295 3734.72 626.503 3740.77 632.31C3746.83 638.116 3757.75 641.019 3773.54 641.019C3779.46 641.019 3786.08 641.019 3793.37 641.019C3800.66 641.019 3806.92 641.019 3812.15 641.019L3812.15 706.384C3805.61 706.384 3797.76 706.384 3788.6 706.384C3779.44 706.384 3770.67 706.384 3762.28 706.384C3725.07 706.384 3697.46 698.592 3679.47 683.008C3661.47 667.424 3652.47 643.734 3652.47 611.937L3652.47 202.763Z" fill="#e6e6e6" fill-rule="nonzero" opacity="1" stroke="none"/>
<path d="M3335.81 712.584C3309.54 712.584 3286.08 708.132 3265.44 699.229C3244.79 690.325 3228.47 676.999 3216.46 659.248C3204.46 641.498 3198.46 619.508 3198.46 593.277C3198.46 570.634 3202.79 552.093 3211.46 537.652C3220.13 523.212 3231.8 511.774 3246.49 503.339C3261.17 494.904 3277.91 488.485 3296.7 484.082C3315.49 479.679 3334.89 476.319 3354.9 474C3379.77 470.862 3399.41 468.339 3413.84 466.432C3428.26 464.526 3438.54 461.529 3444.68 457.442C3450.83 453.355 3453.9 446.564 3453.9 437.067L3453.9 433.724C3453.9 420.808 3450.74 409.41 3444.44 399.531C3438.13 389.651 3429 381.886 3417.06 376.234C3405.11 370.582 3390.72 367.756 3373.9 367.756C3357.2 367.756 3342.41 370.512 3329.56 376.026C3316.7 381.539 3306.48 389.081 3298.9 398.652C3291.32 408.223 3287.03 419.135 3286.03 431.388L3208.19 431.388C3209.62 406.121 3217.31 383.877 3231.28 364.656C3245.24 345.434 3264.46 330.339 3288.93 319.37C3313.41 308.402 3342.09 302.918 3374.98 302.918C3399.31 302.918 3421.21 306.029 3440.68 312.251C3460.14 318.473 3476.68 327.374 3490.29 338.955C3503.9 350.536 3514.29 364.445 3521.46 380.681C3528.64 396.916 3532.23 415.046 3532.23 435.07L3532.23 706.384L3454.3 706.384L3454.3 650.311L3452.8 650.311C3447.34 660.928 3439.8 671 3430.2 680.528C3420.6 690.056 3408.15 697.781 3392.85 703.702C3377.55 709.623 3358.54 712.584 3335.81 712.584ZM3351.96 649.081C3375.2 649.081 3394.38 644.869 3409.52 636.446C3424.66 628.023 3435.88 616.946 3443.19 603.216C3450.51 589.486 3454.17 574.499 3454.17 558.253L3454.17 512.022C3451.44 514.091 3447 516.057 3440.83 517.921C3434.66 519.785 3427.2 521.586 3418.46 523.325C3409.72 525.064 3400.27 526.752 3390.12 528.39C3379.97 530.027 3369.66 531.572 3359.18 533.024C3344.85 534.976 3331.43 538.264 3318.94 542.89C3306.45 547.515 3296.36 553.936 3288.68 562.152C3280.99 570.369 3277.15 581.23 3277.15 594.735C3277.15 605.985 3280.2 615.684 3286.3 623.834C3292.4 631.985 3301.06 638.23 3312.27 642.57C3323.47 646.911 3336.7 649.081 3351.96 649.081Z" fill="#e6e6e6" fill-rule="nonzero" opacity="1" stroke="none"/>
<path d="M2964.59 706.384L2964.59 310.682L3040.54 310.682L3040.54 374.641L3041.9 374.641C3049.15 353.032 3060.6 336.151 3076.24 323.996C3091.89 311.841 3112.31 305.763 3137.49 305.763C3143.5 305.763 3149.04 305.968 3154.09 306.378C3159.14 306.788 3163.23 307.198 3166.35 307.608L3166.35 381.427C3163.36 380.814 3157.97 380.046 3150.17 379.123C3142.38 378.2 3133.84 377.738 3124.55 377.738C3109.88 377.738 3096.39 381.133 3084.08 387.923C3071.77 394.713 3061.98 405.105 3054.71 419.098C3047.44 433.091 3043.81 450.902 3043.81 472.53L3043.81 706.384L2964.59 706.384Z" fill="#e6e6e6" fill-rule="nonzero" opacity="1" stroke="none"/>
<path d="M2902.01 310.682L2902.01 376.046L2672.57 376.046L2672.57 310.682L2902.01 310.682ZM2742.34 202.763L2821.55 202.763L2821.55 601.685C2821.55 616.295 2824.58 626.503 2830.64 632.31C2836.69 638.116 2847.61 641.019 2863.4 641.019C2869.33 641.019 2875.94 641.019 2883.23 641.019C2890.53 641.019 2896.79 641.019 2902.01 641.019L2902.01 706.384C2895.47 706.384 2887.62 706.384 2878.46 706.384C2869.3 706.384 2860.53 706.384 2852.15 706.384C2814.93 706.384 2787.33 698.592 2769.33 683.008C2751.33 667.424 2742.34 643.734 2742.34 611.937L2742.34 202.763Z" fill="#e6e6e6" fill-rule="nonzero" opacity="1" stroke="none"/>
<path d="M2474.47 715.582C2444.26 715.582 2417.05 710.747 2392.83 701.076C2368.61 691.406 2349.07 676.949 2334.23 657.705C2319.38 638.462 2311 614.566 2309.07 586.017L2387.27 586.017C2389.42 607.388 2397.82 623.857 2412.46 635.424C2427.09 646.992 2447.22 652.776 2472.84 652.776C2498.02 652.776 2517.85 647.649 2532.32 637.395C2546.79 627.141 2554.02 614.146 2554.02 598.412C2554.02 584.954 2548.86 574.154 2538.55 566.014C2528.23 557.873 2514.45 551.941 2497.2 548.218L2431.62 533.767C2394.36 525.426 2366.11 511.775 2346.89 492.815C2327.67 473.855 2318.06 449.717 2318.06 420.404C2318.06 397.07 2324.37 376.496 2336.98 358.683C2349.59 340.871 2367.28 326.952 2390.06 316.929C2412.84 306.905 2439.35 301.893 2469.6 301.893C2499.33 301.893 2525.73 307.167 2548.8 317.713C2571.88 328.26 2590.1 343.183 2603.49 362.483C2616.87 381.783 2623.94 404.773 2624.68 431.452L2549.13 431.452C2548.88 412.177 2541.62 396.21 2527.34 383.55C2513.07 370.889 2494.18 364.559 2470.68 364.559C2448.21 364.559 2430.33 369.811 2417.06 380.315C2403.78 390.818 2397.14 403.688 2397.14 418.922C2397.14 432.338 2402.22 443.177 2412.38 451.441C2422.54 459.704 2436.46 465.86 2454.14 469.907L2521.62 484.761C2560.27 493.396 2588.65 506.598 2606.77 524.37C2624.89 542.142 2633.95 565.378 2633.95 594.08C2633.95 619.193 2627.06 640.842 2613.28 659.026C2599.5 677.209 2580.59 691.181 2556.54 700.941C2532.49 710.702 2505.13 715.582 2474.47 715.582Z" fill="#e6e6e6" fill-rule="nonzero" opacity="1" stroke="none"/>
<path d="M1460.67 863.016L1460.67 310.682L1507.88 310.682L1507.88 385.373L1508.51 385.373C1515.84 368.472 1526.25 353.942 1539.74 341.783C1553.23 329.624 1568.86 320.235 1586.64 313.615C1604.41 306.995 1623.13 303.685 1642.78 303.685C1676.67 303.685 1706.57 312.241 1732.46 329.353C1758.36 346.465 1778.62 370.406 1793.23 401.176C1807.85 431.946 1815.15 467.731 1815.15 508.533C1815.15 549.252 1807.87 584.996 1793.29 615.763C1778.72 646.531 1758.51 670.493 1732.65 687.648C1706.8 704.803 1676.84 713.38 1642.78 713.38C1623.13 713.38 1604.71 710.133 1587.51 703.638C1570.31 697.143 1555.05 687.753 1541.73 675.469C1528.41 663.186 1517.67 648.509 1509.51 631.44L1508.88 631.44L1508.88 863.016L1460.67 863.016ZM1636.28 669.41C1661.52 669.41 1683.9 663.123 1703.42 650.551C1722.95 637.978 1738.34 619.721 1749.58 595.78C1760.82 571.839 1766.44 542.757 1766.44 508.533C1766.44 474.14 1760.82 444.953 1749.58 420.972C1738.34 396.99 1722.95 378.733 1703.42 366.201C1683.9 353.67 1661.52 347.404 1636.28 347.404C1609.8 347.404 1586.74 354.003 1567.09 367.202C1547.44 380.401 1532.24 399.075 1521.5 423.223C1510.76 447.371 1505.38 475.807 1505.38 508.533C1505.38 541.09 1510.76 569.422 1521.5 593.529C1532.24 617.636 1547.44 636.309 1567.09 649.549C1586.74 662.79 1609.8 669.41 1636.28 669.41Z" fill="#e6e6e6" fill-rule="nonzero" opacity="1" stroke="none"/>
<path d="M1889.6 863.016L1889.6 310.682L1936.81 310.682L1936.81 385.373L1937.43 385.373C1944.76 368.472 1955.17 353.942 1968.66 341.783C1982.15 329.624 1997.79 320.235 2015.56 313.615C2033.34 306.995 2052.06 303.685 2071.71 303.685C2105.6 303.685 2135.49 312.241 2161.39 329.353C2187.29 346.465 2207.55 370.406 2222.16 401.176C2236.77 431.946 2244.08 467.731 2244.08 508.533C2244.08 549.252 2236.79 584.996 2222.22 615.763C2207.65 646.531 2187.43 670.493 2161.58 687.648C2135.72 704.803 2105.77 713.38 2071.71 713.38C2052.06 713.38 2033.63 710.133 2016.44 703.638C1999.24 697.143 1983.98 687.753 1970.66 675.469C1957.34 663.186 1946.6 648.509 1938.43 631.44L1937.81 631.44L1937.81 863.016L1889.6 863.016ZM2065.21 669.41C2090.44 669.41 2112.82 663.123 2132.35 650.551C2151.88 637.978 2167.26 619.721 2178.51 595.78C2189.75 571.839 2195.37 542.757 2195.37 508.533C2195.37 474.14 2189.75 444.953 2178.51 420.972C2167.26 396.99 2151.88 378.733 2132.35 366.201C2112.82 353.67 2090.44 347.404 2065.21 347.404C2038.73 347.404 2015.67 354.003 1996.01 367.202C1976.36 380.401 1961.17 399.075 1950.43 423.223C1939.68 447.371 1934.31 475.807 1934.31 508.533C1934.31 541.09 1939.68 569.422 1950.43 593.529C1961.17 617.636 1976.36 636.309 1996.01 649.549C2015.67 662.79 2038.73 669.41 2065.21 669.41Z" fill="#e6e6e6" fill-rule="nonzero" opacity="1" stroke="none"/>
<path d="M1187.62 712.379C1162.48 712.379 1139.58 708.07 1118.93 699.451C1098.27 690.833 1081.79 677.843 1069.46 660.481C1057.14 643.119 1050.98 621.532 1050.98 595.719C1050.98 575.148 1054.93 558.098 1062.84 544.567C1070.75 531.036 1081.81 520.107 1096.01 511.779C1110.2 503.451 1127.07 496.873 1146.59 492.045C1166.12 487.217 1187.46 483.304 1210.61 480.306C1235.34 476.89 1255.49 473.976 1271.06 471.561C1286.63 469.147 1298.1 465.545 1305.47 460.756C1312.84 455.967 1316.52 448.41 1316.52 438.086L1316.52 432.09C1316.52 415.603 1312.36 400.968 1304.04 388.187C1295.71 375.405 1283.99 365.33 1268.88 357.96C1253.76 350.591 1236.09 346.906 1215.85 346.906C1195.78 346.906 1177.8 350.507 1161.89 357.709C1145.99 364.91 1133.35 374.715 1123.98 387.124C1114.62 399.533 1109.6 413.522 1108.94 429.092L1059.97 429.092C1060.8 405.11 1067.96 383.71 1081.45 364.89C1094.94 346.07 1113.26 331.164 1136.41 320.172C1159.56 309.181 1186.04 303.685 1215.85 303.685C1237.92 303.685 1258.05 306.807 1276.25 313.053C1294.44 319.298 1310.1 328.125 1323.21 339.535C1336.33 350.944 1346.44 364.496 1353.56 380.192C1360.68 395.887 1364.24 413.186 1364.24 432.09L1364.24 706.384L1316.52 706.384L1316.52 641.68L1315.28 641.68C1309.61 653.921 1301.31 665.434 1290.36 676.219C1279.41 687.004 1265.46 695.727 1248.52 702.388C1231.57 709.049 1211.27 712.379 1187.62 712.379ZM1193.62 668.66C1219.93 668.66 1242.25 663.643 1260.57 653.61C1278.89 643.576 1292.79 629.774 1302.29 612.204C1311.78 594.633 1316.52 574.481 1316.52 551.748L1316.52 496.29C1313.03 499.373 1307.91 502.143 1301.16 504.598C1294.42 507.053 1286.3 509.302 1276.8 511.343C1267.31 513.384 1256.8 515.32 1245.27 517.151C1233.73 518.982 1221.51 520.771 1208.61 522.52C1186.54 525.518 1167.37 529.932 1151.09 535.761C1134.81 541.591 1122.26 549.46 1113.43 559.368C1104.6 569.277 1100.19 582.225 1100.19 598.213C1100.19 613.12 1104.17 625.84 1112.12 636.373C1120.07 646.906 1131.08 654.92 1145.16 660.416C1159.23 665.912 1175.38 668.66 1193.62 668.66Z" fill="#e6e6e6" fill-rule="nonzero" opacity="1" stroke="none"/>
</g>
<g opacity="1">
<path d="M20 191.25C8.95432 191.25 1.24759e-05 200.204 1.24759e-05 211.25L1.24759e-05 239.75L1.24759e-05 780.781L5.14469e-06 809.281C2.30336e-06 820.327 8.95431 829.281 20 829.281L48.5 829.281L236.5 829.281C247.546 829.281 256.5 820.327 256.5 809.281L256.5 780.781C256.5 769.736 247.546 760.781 236.5 760.781L68.5 760.781L68.5 259.75L236.5 259.75C247.546 259.75 256.5 250.796 256.5 239.75L256.5 211.25C256.5 200.204 247.546 191.25 236.5 191.25L20 191.25Z" fill="url(#LinearGradient)" fill-rule="nonzero" opacity="1" stroke="none"/>
<path d="M808.629 829.016C819.675 829.016 828.629 820.061 828.629 809.016L828.629 780.516L828.629 239.484L828.629 210.984C828.629 199.939 819.675 190.984 808.629 190.984L780.129 190.984L592.129 190.984C581.084 190.984 572.129 199.939 572.129 210.984L572.129 239.484C572.129 250.53 581.084 259.484 592.129 259.484L760.129 259.484L760.129 760.516L592.129 760.516C581.084 760.516 572.129 769.47 572.129 780.516L572.129 809.016C572.129 820.061 581.084 829.016 592.129 829.016L808.629 829.016Z" fill="url(#LinearGradient_2)" fill-rule="nonzero" opacity="1" stroke="none"/>
<path d="M494.661 235.491C497.945 215.235 472.235 203.762 459.351 219.734L211.082 527.525C200.529 540.607 209.841 560.082 226.649 560.082L346.214 560.082C358.537 560.082 367.929 571.118 365.957 583.282L332.684 788.509C329.4 808.765 355.11 820.238 367.993 804.266L616.263 496.475C626.815 483.393 617.504 463.918 600.696 463.918L481.13 463.918C468.807 463.918 459.416 452.882 461.388 440.718L494.661 235.491Z" fill="url(#LinearGradient_3)" fill-rule="nonzero" opacity="1" stroke="none"/>
</g>
</g>
</svg>
